<svg width="1280" height="1100" viewBox="0 0 1280 1100" xmlns="http://www.w3.org/2000/svg">
  <defs>
    <filter id="keyShadow" x="-20%" y="-20%" width="140%" height="140%">
      <feGaussianBlur in="SourceAlpha" stdDeviation="1"/>
      <feOffset dx="2" dy="2" result="offsetblur"/>
      <feComponentTransfer>
        <feFuncA type="linear" slope="0.3"/>
      </feComponentTransfer>
      <feMerge>
        <feMergeNode/>
        <feMergeNode in="SourceGraphic"/>
      </feMerge>
    </filter>

    <style>
      /* --- GLOBAL STYLES --- */
      /* Fixed: &amp; in URL is required for valid XML */
      @import url('https://fonts.googleapis.com/css2?family=JetBrains+Mono:wght@400;700;800&amp;display=swap');
      
      svg { font-family: 'JetBrains Mono', 'Fira Code', monospace; background-color: #121212; }
      
      /* Quadrant Backgrounds (Material Colors) */
      .section-bg { rx: 14; ry: 14; opacity: 0.95; stroke-width: 0; }
      .bg-purple { fill: #8e44ad; }
      .bg-teal   { fill: #16a085; }
      .bg-red    { fill: #c0392b; }
      .bg-blue   { fill: #2980b9; }

      /* Typography */
      .main-title { font-size: 24px; font-weight: 800; fill: #ffffff; letter-spacing: 1.2px; }
      .sub-title { font-size: 15px; font-weight: 700; fill: #ffffff; opacity: 0.9; margin-bottom: 12px; text-transform: lowercase; }
      .concept-text { font-size: 13px; fill: #ecf0f1; font-weight: 400; font-style: italic;}
      .cli-text { font-size: 13px; fill: #ffffff; font-weight: 600; font-family: monospace; }
      .desc-text { font-size: 13px; fill: #ecf0f1; font-weight: 500; dominant-baseline: central; }
      .mode-tag { font-size: 11px; fill: #e0e0e0; font-weight: 800; text-anchor: end; letter-spacing: 1px; }

      /* Keycaps Styling (Material White Style) */
      .key-group { cursor: default; }
      .key-rect { 
        stroke-width: 1.5; 
        rx: 6; ry: 6; 
        filter: url(#keyShadow); /* Uses the native filter defined above */
      }
      .key-text { font-size: 13px; font-weight: 800; text-anchor: middle; dominant-baseline: central; }
      .key-plus { fill: #ffffff; font-size: 13px; font-weight: 700; text-anchor: middle; dominant-baseline: central; opacity: 0.9; }
      
      /* --- KEY THEMES (White Background + Colored Border/Text) --- */
      
      /* Purple Keys */
      .k-purp { fill: #ffffff; stroke: #9b59b6; } 
      .kt-purp { fill: #8e44ad; }

      /* Teal Keys */
      .k-teal { fill: #ffffff; stroke: #1abc9c; } 
      .kt-teal { fill: #16a085; }

      /* Red Keys */
      .k-red { fill: #ffffff; stroke: #e74c3c; }  
      .kt-red { fill: #c0392b; }

      /* Blue Keys (Copy Mode Standard) */
      .k-blue { fill: #ffffff; stroke: #3498db; } 
      .kt-blue { fill: #2980b9; }
      
      /* Emacs Mode Special Keys */
      /* Orange (Action Keys) */
      .k-orange { fill: #ffffff; stroke: #e67e22; } 
      .kt-orange { fill: #d35400; }
      
      /* Gray (Modifier Keys) */
      .k-gray { fill: #ecf0f1; stroke: #95a5a6; }   
      .kt-gray { fill: #7f8c8d; }

      /* Dividers */
      .divider { stroke: #ffffff; stroke-width: 1; stroke-dasharray: 4, 6; opacity: 0.3; }
      .divider-solid { stroke: #ffffff; stroke-width: 2; opacity: 0.2; }
    </style>
  </defs>

  <g transform="translate(15, 15)">
    <rect width="615" height="500" class="section-bg bg-purple" />
    <text x="30" y="40" class="main-title">[tmux sessions]</text>
    <line x1="30" y1="60" x2="585" y2="60" class="divider-solid" />

    <defs>
        <g id="kb-purp" class="key-group">
          <rect x="0" y="0" width="42" height="30" class="key-rect k-purp"/><text x="21" y="15" class="key-text kt-purp">Ctrl</text>
          <text x="50" y="15" class="key-plus">+</text>
          <rect x="58" y="0" width="30" height="30" class="key-rect k-purp"/><text x="73" y="15" class="key-text kt-purp">b</text>
        </g>
    </defs>

    <g transform="translate(30, 90)">
      <g>
        <text x="0" y="0" class="sub-title" font-weight="bold">_ new sessions</text>
        <text x="0" y="24" class="cli-text">tmux</text>
        <text x="0" y="42" class="cli-text">tmux new</text>
        <text x="0" y="60" class="cli-text">tmux new-session</text>
        <text x="0" y="78" class="cli-text">tmux new -s session-name</text>
      </g>
      <line x1="0" y1="90" x2="240" y2="90" class="divider" />
      <g transform="translate(0, 110)">
        <text x="0" y="0" class="sub-title" font-weight="bold">_ attach sessions</text>
        <text x="0" y="24" class="cli-text">tmux a</text>
        <text x="0" y="42" class="cli-text">tmux att</text>
        <text x="0" y="60" class="cli-text">tmux attach</text>
        <text x="0" y="78" class="cli-text">tmux attach-session</text>
        <text x="0" y="96" class="cli-text">tmux a -t session-name</text>
      </g>
       <line x1="0" y1="118" x2="240" y2="118" class="divider" />
      <g transform="translate(0, 245)">
        <text x="0" y="0" class="sub-title" font-weight="bold">_ remove sessions</text>
        <text x="0" y="24" class="cli-text">tmux kill-ses</text>
        <text x="0" y="42" class="cli-text">tmux kill-session -t session-name</text>
      </g>
    </g>

    <line x1="280" y1="70" x2="280" y2="350" class="divider" />

    <g transform="translate(300, 90)">
      <text x="0" y="0" class="sub-title" font-weight="bold">_ key bindings</text>
      
      <g transform="translate(0, 40)">
        <use href="#kb-purp"/>
        <rect x="100" y="0" width="30" height="30" class="key-rect k-purp"/><text x="115" y="15" class="key-text kt-purp">$</text>
        <text x="145" y="15" class="desc-text">rename session</text>
      </g>
      <g transform="translate(0, 85)">
        <use href="#kb-purp"/>
        <rect x="100" y="0" width="30" height="30" class="key-rect k-purp"/><text x="115" y="15" class="key-text kt-purp">d</text>
        <text x="145" y="15" class="desc-text">detach session</text>
      </g>
      <g transform="translate(0, 130)">
        <use href="#kb-purp"/>
        <rect x="100" y="0" width="30" height="30" class="key-rect k-purp"/><text x="115" y="15" class="key-text kt-purp">)</text>
        <text x="145" y="15" class="desc-text">next session</text>
      </g>
      <g transform="translate(0, 175)">
        <use href="#kb-purp"/>
        <rect x="100" y="0" width="30" height="30" class="key-rect k-purp"/><text x="115" y="15" class="key-text kt-purp">(</text>
        <text x="145" y="15" class="desc-text">previous session</text>
      </g>
    </g>
  </g>

  <g transform="translate(650, 15)">
    <rect width="615" height="500" class="section-bg bg-teal" />
    <text x="30" y="40" class="main-title">[tmux windows]</text>
    <line x1="30" y1="60" x2="585" y2="60" class="divider-solid" />

    <defs>
        <g id="kb-teal" class="key-group">
          <rect x="0" y="0" width="42" height="30" class="key-rect k-teal"/><text x="21" y="15" class="key-text kt-teal">Ctrl</text>
          <text x="50" y="15" class="key-plus">+</text>
          <rect x="58" y="0" width="30" height="30" class="key-rect k-teal"/><text x="73" y="15" class="key-text kt-teal">b</text>
        </g>
    </defs>

    <g transform="translate(30, 90)">
      <text x="0" y="0" class="concept-text"><tspan font-weight="bold" fill="#ffffff">_ windows</tspan> are like tabs in a browser.</text>
      <text x="0" y="18" class="concept-text">Windows exist in sessions and occupy</text>
      <text x="0" y="36" class="concept-text">the space of a session screen.</text>
      
      <line x1="0" y1="60" x2="555" y2="60" class="divider" />

      <text x="0" y="90" class="sub-title" font-weight="bold">_ key bindings</text>

      <g transform="translate(0, 125)">
        <g>
          <use href="#kb-teal"/>
          <rect x="100" y="0" width="30" height="30" class="key-rect k-teal"/><text x="115" y="15" class="key-text kt-teal">c</text>
          <text x="145" y="15" class="desc-text">create window</text>
        </g>
        <g transform="translate(0, 45)">
          <use href="#kb-teal"/>
          <rect x="100" y="0" width="30" height="30" class="key-rect k-teal"/><text x="115" y="15" class="key-text kt-teal">n</text>
          <text x="145" y="15" class="desc-text">next window</text>
        </g>
        <g transform="translate(0, 90)">
          <use href="#kb-teal"/>
          <rect x="100" y="0" width="30" height="30" class="key-rect k-teal"/><text x="115" y="15" class="key-text kt-teal">p</text>
          <text x="145" y="15" class="desc-text">previous window</text>
        </g>
        <g transform="translate(0, 135)">
          <use href="#kb-teal"/>
          <rect x="100" y="0" width="30" height="30" class="key-rect k-teal"/><text x="115" y="15" class="key-text kt-teal">l</text>
          <text x="145" y="15" class="desc-text">last used window</text>
        </g>
         <g transform="translate(0, 180)">
          <use href="#kb-teal"/>
          <rect x="100" y="0" width="50" height="30" class="key-rect k-teal"/><text x="125" y="15" class="key-text kt-teal">0-9</text>
          <text x="160" y="15" class="desc-text">select by number</text>
        </g>
      </g>

      <g transform="translate(300, 125)">
         <g>
          <use href="#kb-teal"/>
          <rect x="100" y="0" width="30" height="30" class="key-rect k-teal"/><text x="115" y="15" class="key-text kt-teal">'</text>
          <text x="145" y="15" class="desc-text">select by name</text>
        </g>
        <g transform="translate(0, 45)">
          <use href="#kb-teal"/>
          <rect x="100" y="0" width="30" height="30" class="key-rect k-teal"/><text x="115" y="15" class="key-text kt-teal">.</text>
          <text x="145" y="15" class="desc-text">change number</text>
        </g>
        <g transform="translate(0, 90)">
          <use href="#kb-teal"/>
          <rect x="100" y="0" width="30" height="30" class="key-rect k-teal"/><text x="115" y="15" class="key-text kt-teal">,</text>
          <text x="145" y="15" class="desc-text">rename window</text>
        </g>
        <g transform="translate(0, 135)">
          <use href="#kb-teal"/>
          <rect x="100" y="0" width="30" height="30" class="key-rect k-teal"/><text x="115" y="15" class="key-text kt-teal">f</text>
          <text x="145" y="15" class="desc-text">search windows</text>
        </g>
        <g transform="translate(0, 180)">
          <use href="#kb-teal"/>
          <rect x="100" y="0" width="30" height="30" class="key-rect k-teal"/><text x="115" y="15" class="key-text kt-teal">&amp;</text>
          <text x="145" y="15" class="desc-text">kill window</text>
        </g>
        <g transform="translate(0, 225)">
          <use href="#kb-teal"/>
          <rect x="100" y="0" width="30" height="30" class="key-rect k-teal"/><text x="115" y="15" class="key-text kt-teal">w</text>
          <text x="145" y="15" class="desc-text">list windows</text>
        </g>
      </g>
    </g>
  </g>

  <g transform="translate(15, 550)">
    <rect width="615" height="500" class="section-bg bg-red" />
    <text x="30" y="40" class="main-title">[tmux panes]</text>
    <line x1="30" y1="60" x2="585" y2="60" class="divider-solid" />

    <defs>
        <g id="kb-red" class="key-group">
          <rect x="0" y="0" width="42" height="30" class="key-rect k-red"/><text x="21" y="15" class="key-text kt-red">Ctrl</text>
          <text x="50" y="15" class="key-plus">+</text>
          <rect x="58" y="0" width="30" height="30" class="key-rect k-red"/><text x="73" y="15" class="key-text kt-red">b</text>
        </g>
    </defs>

    <g transform="translate(30, 90)">
      <text x="0" y="0" class="concept-text"><tspan font-weight="bold" fill="#ffffff">_ panes</tspan> are sections of windows</text>
      <text x="0" y="18" class="concept-text">that have been split into different</text>
      <text x="0" y="36" class="concept-text">screens - just like panes of a real window!</text>
      
      <line x1="0" y1="60" x2="555" y2="60" class="divider" />

      <text x="0" y="90" class="sub-title" font-weight="bold">_ key bindings</text>

      <g transform="translate(0, 125)">
        <g>
          <use href="#kb-red"/>
          <rect x="100" y="0" width="30" height="30" class="key-rect k-red"/><text x="115" y="15" class="key-text kt-red">%</text>
          <text x="145" y="15" class="desc-text">vertical split</text>
        </g>
        <g transform="translate(0, 45)">
          <use href="#kb-red"/>
          <rect x="100" y="0" width="30" height="30" class="key-rect k-red"/><text x="115" y="15" class="key-text kt-red">"</text>
          <text x="145" y="15" class="desc-text">horizontal split</text>
        </g>
        <g transform="translate(0, 90)">
          <use href="#kb-red"/>
          <rect x="100" y="0" width="30" height="30" class="key-rect k-red"/><text x="115" y="15" class="key-text kt-red">→</text>
          <text x="145" y="15" class="desc-text">move pane right</text>
        </g>
        <g transform="translate(0, 135)">
          <use href="#kb-red"/>
          <rect x="100" y="0" width="30" height="30" class="key-rect k-red"/><text x="115" y="15" class="key-text kt-red">←</text>
          <text x="145" y="15" class="desc-text">move pane left</text>
        </g>
         <g transform="translate(0, 180)">
          <use href="#kb-red"/>
          <rect x="100" y="0" width="30" height="30" class="key-rect k-red"/><text x="115" y="15" class="key-text kt-red">↑</text>
          <text x="145" y="15" class="desc-text">move pane up</text>
        </g>
         <g transform="translate(0, 225)">
          <use href="#kb-red"/>
          <rect x="100" y="0" width="30" height="30" class="key-rect k-red"/><text x="115" y="15" class="key-text kt-red">↓</text>
          <text x="145" y="15" class="desc-text">move pane down</text>
        </g>
      </g>

      <g transform="translate(290, 125)">
        <g>
          <use href="#kb-red"/>
          <rect x="100" y="0" width="30" height="30" class="key-rect k-red"/><text x="115" y="15" class="key-text kt-red">o</text>
          <text x="145" y="15" class="desc-text">next pane</text>
        </g>
        <g transform="translate(0, 45)">
          <use href="#kb-red"/>
          <rect x="100" y="0" width="30" height="30" class="key-rect k-red"/><text x="115" y="15" class="key-text kt-red">;</text>
          <text x="145" y="15" class="desc-text">last active pane</text>
        </g>
        <g transform="translate(0, 90)">
          <use href="#kb-red"/>
          <rect x="100" y="0" width="30" height="30" class="key-rect k-red"/><text x="115" y="15" class="key-text kt-red">}</text>
          <text x="145" y="15" class="desc-text">swap pane right</text>
        </g>
        <g transform="translate(0, 135)">
          <use href="#kb-red"/>
          <rect x="100" y="0" width="30" height="30" class="key-rect k-red"/><text x="115" y="15" class="key-text kt-red">{</text>
          <text x="145" y="15" class="desc-text">swap pane left</text>
        </g>
         <g transform="translate(0, 180)">
          <use href="#kb-red"/>
          <rect x="100" y="0" width="30" height="30" class="key-rect k-red"/><text x="115" y="15" class="key-text kt-red">!</text>
          <text x="145" y="15" class="desc-text">convert to window</text>
        </g>
         <g transform="translate(0, 225)">
          <use href="#kb-red"/>
          <rect x="100" y="0" width="30" height="30" class="key-rect k-red"/><text x="115" y="15" class="key-text kt-red">x</text>
          <text x="145" y="15" class="desc-text">kill pane</text>
        </g>
      </g>
    </g>
  </g>

  <g transform="translate(650, 550)">
    <rect width="615" height="500" class="section-bg bg-blue" />
    <text x="30" y="40" class="main-title">[tmux copy mode]</text>
    <line x1="30" y1="60" x2="585" y2="60" class="divider-solid" />

    <defs>
        <g id="kb-blue" class="key-group">
          <rect x="0" y="0" width="42" height="30" class="key-rect k-gray"/><text x="21" y="15" class="key-text kt-gray">Ctrl</text>
          <text x="50" y="15" class="key-plus">+</text>
          <rect x="58" y="0" width="30" height="30" class="key-rect k-gray"/><text x="73" y="15" class="key-text kt-gray">b</text>
        </g>
    </defs>

    <g transform="translate(30, 90)">
      
      <text x="0" y="0" class="sub-title" font-weight="bold">_ key bindings</text>
      <text x="300" y="0" class="sub-title" font-weight="bold">EMACS MODE - DEFAULT</text>

      <g transform="translate(0, 30)">
        <use href="#kb-blue"/>
        <rect x="100" y="0" width="30" height="30" class="key-rect k-orange"/><text x="115" y="15" class="key-text kt-orange">[</text>
        <text x="145" y="15" class="desc-text">enter copy mode</text>
      </g>
      <g transform="translate(0, 75)">
        <use href="#kb-blue"/>
        <rect x="100" y="0" width="30" height="30" class="key-rect k-orange"/><text x="115" y="15" class="key-text kt-orange">]</text>
        <text x="145" y="15" class="desc-text">paste from buffer</text>
      </g>

      <g transform="translate(300, 30)">
         <g transform="translate(0, 0)">
            <rect x="0" y="0" width="42" height="30" class="key-rect k-gray"/><text x="21" y="15" class="key-text kt-gray">Alt</text>
             <text x="50" y="15" class="key-plus">+</text>
            <rect x="58" y="0" width="30" height="30" class="key-rect k-orange"/><text x="73" y="15" class="key-text kt-orange">&gt;</text>
            <text x="100" y="15" class="desc-text">go to bottom</text>
         </g>
         <g transform="translate(0, 45)">
            <rect x="0" y="0" width="70" height="30" class="key-rect k-orange"/><text x="35" y="15" class="key-text kt-orange">Arrows</text>
            <text x="85" y="15" class="desc-text">move cursor</text>
         </g>
         <g transform="translate(0, 90)">
             <rect x="0" y="0" width="42" height="30" class="key-rect k-gray"/><text x="21" y="15" class="key-text kt-gray">Ctrl</text>
             <text x="50" y="15" class="key-plus">+</text>
            <rect x="58" y="0" width="30" height="30" class="key-rect k-orange"/><text x="73" y="15" class="key-text kt-orange">s</text>
            <text x="100" y="15" class="desc-text">search</text>
         </g>
         
         <g transform="translate(59, 135)">
            <rect x="0" y="0" width="30" height="30" class="key-rect k-orange"/><text x="15" y="15" class="key-text kt-orange">n</text>
            <text x="40" y="15" class="desc-text">next search</text>
         </g>
         <g transform="translate(0, 180)">
             <rect x="0" y="0" width="90" height="30" class="key-rect k-orange"/><text x="30" y="15" class="key-text kt-orange" font-size="11">PageUp</text>
             <text x="100" y="15" class="desc-text">scroll up</text>
         </g>
         <g transform="translate(0, 220)">
             <rect x="0" y="0" width="90" height="30" class="key-rect k-orange"/><text x="35" y="15" class="key-text kt-orange" font-size="11">PageDown</text>
             <text x="100" y="15" class="desc-text">scroll down</text>
         </g>
         <g transform="translate(0, 260)">
             <rect x="0" y="0" width="30" height="30" class="key-rect k-orange"/><text x="15" y="15" class="key-text kt-orange">q</text>
             <text x="40" y="15" class="desc-text">quit</text>
         </g>
      </g>

      <line x1="0" y1="120" x2="555" y2="120" class="divider" />

      <text x="0" y="150" class="sub-title" font-weight="bold">_ copy mode commands</text>
      <g transform="translate(0, 185)">
         <g>
            <rect x="0" y="0" width="42" height="30" class="key-rect k-gray"/><text x="21" y="15" class="key-text kt-gray">Ctrl</text>
            <text x="50" y="15" class="key-plus">+</text>
            <rect x="58" y="0" width="55" height="30" class="key-rect k-orange"/><text x="85" y="15" class="key-text kt-orange">space</text>
            <text x="125" y="15" class="desc-text">start selection</text>
         </g>
         <g transform="translate(0, 45)">
             <rect x="0" y="0" width="42" height="30" class="key-rect k-gray"/><text x="21" y="15" class="key-text kt-gray">Ctrl</text>
             <text x="50" y="15" class="key-plus">+</text>
            <rect x="58" y="0" width="30" height="30" class="key-rect k-orange"/><text x="73" y="15" class="key-text kt-orange">W</text>
            <text x="100" y="15" class="desc-text">copy selection</text>
         </g>
         <g transform="translate(0, 90)">
             <rect x="0" y="0" width="42" height="30" class="key-rect k-gray"/><text x="21" y="15" class="key-text kt-gray">Ctrl</text>
             <text x="50" y="15" class="key-plus">+</text>
            <rect x="58" y="0" width="30" height="30" class="key-rect k-orange"/><text x="73" y="15" class="key-text kt-orange">g</text>
            <text x="100" y="15" class="desc-text">clear selection</text>
         </g>
         <g transform="translate(0, 135)">
             <rect x="0" y="0" width="42" height="30" class="key-rect k-gray"/><text x="21" y="15" class="key-text kt-gray">Alt</text>
             <text x="50" y="15" class="key-plus">+</text>
            <rect x="58" y="0" width="30" height="30" class="key-rect k-orange"/><text x="73" y="15" class="key-text kt-orange">&lt;</text>
            <text x="100" y="15" class="desc-text">go to top</text>
         </g>
      </g>
    </g>
  </g>
</svg>